<svg xmlns="http://www.w3.org/2000/svg" fill="none" viewBox="0 0 132 40">
  <g fill="#fff" clip-path="url(#a)">
    <path d="M39.845 13.456h3.234c0 .818.628 1.216 1.344 1.216.658 0 1.286-.357 1.286-.977 0-.716-.886-.926-1.972-1.193-1.647-.412-3.75-.918-3.75-3.526 0-2.25 1.649-3.547 4.337-3.547 2.73 0 4.299 1.409 4.299 3.74h-3.147c0-.725-.539-1.065-1.188-1.065-.559 0-1.097.239-1.097.779 0 .65.86.866 1.933 1.136 1.676.436 3.87 1 3.87 3.614 0 2.5-1.912 3.8-4.558 3.8-2.788.002-4.591-1.48-4.591-3.977Zm18.787-4.912h-3.094v8.61h-3.155v-8.61h-3.095V5.702h9.344v2.842Zm6.851 6.75h-4.034l-.631 1.86h-3.37L61.926 5.7h3.068l4.573 11.454h-3.456l-.629-1.86Zm-2.027-6.017-1.244 3.548h2.51l-1.266-3.547Zm11.161 4.373h-1.139v3.5h-3.14V5.7h4.94c2.458 0 4.24 1.659 4.24 4.056a3.683 3.683 0 0 1-.469 1.864 3.66 3.66 0 0 1-1.341 1.37l2.262 4.165h-3.505l-1.849-3.505Zm-1.139-2.658h1.434c.879 0 1.384-.53 1.384-1.25 0-.718-.505-1.242-1.384-1.242h-1.434v2.492Zm12.91 6.452c-3.47 0-6.057-2.58-6.057-6.006 0-3.446 2.591-6.026 6.056-6.026 2.986 0 5.3 1.98 5.763 4.885h-3.18c-.392-1.175-1.377-1.937-2.576-1.937-1.617 0-2.798 1.305-2.798 3.078 0 1.772 1.188 3.05 2.798 3.05 1.265 0 2.256-.827 2.578-2.1h3.2c-.433 3.012-2.76 5.056-5.796 5.056h.011Zm16.731-11.742v11.454h-3.173v-4.398h-3.42v4.396h-3.171V5.7h3.171v4.134h3.42V5.703h3.173Zm8.795 9.592h-4.037l-.632 1.86h-3.367L108.356 5.7h3.07l4.575 11.454h-3.458l-.629-1.86Zm-2.027-6.017-1.244 3.548h2.506l-1.262-3.547Zm6.883-3.575h3.18v11.454h-3.18V5.703Zm15.23 0v11.454h-2.596l-4.528-6.215v6.215h-3.044V5.703h2.748l4.377 6.007V5.702H132ZM51.887 28.191c0 3.743-2.432 6.404-5.997 6.404-3.483 0-6.065-2.52-6.065-6s2.53-6.02 6.036-6.02c2.986 0 5.426 1.875 5.909 4.534h-3.294c-.412-.964-1.424-1.584-2.592-1.584-1.705 0-2.85 1.24-2.85 3.069 0 1.808 1.13 3.047 2.85 3.047 1.196 0 2.224-.581 2.58-1.465H45.64v-1.985h6.248Zm7.64 4.256h-4.038l-.633 1.858h-3.359l4.478-11.441h3.067l4.571 11.441h-3.458l-.628-1.858Zm-2.02-6.012-1.243 3.546h2.5l-1.256-3.546Zm15.159 4.94v2.934h-9.013v-.658L67.87 25.8h-3.942v-2.939h8.55v.716l-4.206 7.798h4.393Zm8.618.196v2.734H73.86V22.864h7.286v2.725h-4.162v1.685h3.745v2.585h-3.745v1.712h4.3Zm5.749-.767h-1.138v3.5h-3.137v-11.44h4.937c2.454 0 4.23 1.657 4.23 4.05a3.676 3.676 0 0 1-.467 1.861 3.652 3.652 0 0 1-1.34 1.369l2.255 4.161h-3.495l-1.845-3.501Zm-1.138-2.654h1.433c.877 0 1.382-.531 1.382-1.25s-.505-1.239-1.382-1.239h-1.434v2.489ZM28.432 40V11.429H11.373v5.713h11.373v17.144H11.373V40h17.059Z"/>
    <path d="M0 0v28.571h17.06v-5.713H5.686V5.714H17.06V0H0Z"/>
  </g>
  <defs>
    <clipPath id="a">
      <path fill="#fff" d="M0 0h132v40H0z"/>
    </clipPath>
  </defs>
</svg>
